<mxfile host="app.diagrams.net" modified="2023-04-19T12:47:03.416Z" agent="Mozilla/5.0 (Windows NT 10.0; Win64; x64) AppleWebKit/537.36 (KHTML, like Gecko) Chrome/112.0.0.0 Safari/537.36" etag="7mpourGlePBLzYKTLJ_6" version="21.2.0" type="device">
  <diagram id="R2lEEEUBdFMjLlhIrx00" name="Page-1">
    <mxGraphModel dx="1434" dy="796" grid="1" gridSize="10" guides="1" tooltips="1" connect="1" arrows="1" fold="1" page="1" pageScale="1" pageWidth="850" pageHeight="1100" math="0" shadow="0" extFonts="Permanent Marker^https://fonts.googleapis.com/css?family=Permanent+Marker">
      <root>
        <mxCell id="0" />
        <mxCell id="1" parent="0" />
        <mxCell id="XpB990MYHuoKL3UtSnTx-1" value="Table" style="shape=table;startSize=30;container=1;collapsible=1;childLayout=tableLayout;fixedRows=1;rowLines=0;fontStyle=1;align=center;resizeLast=1;html=1;" vertex="1" parent="1">
          <mxGeometry x="20" y="80" width="810" height="440" as="geometry" />
        </mxCell>
        <mxCell id="XpB990MYHuoKL3UtSnTx-2" value="" style="shape=tableRow;horizontal=0;startSize=0;swimlaneHead=0;swimlaneBody=0;fillColor=none;collapsible=0;dropTarget=0;points=[[0,0.5],[1,0.5]];portConstraint=eastwest;top=0;left=0;right=0;bottom=1;" vertex="1" parent="XpB990MYHuoKL3UtSnTx-1">
          <mxGeometry y="30" width="810" height="30" as="geometry" />
        </mxCell>
        <mxCell id="XpB990MYHuoKL3UtSnTx-3" value="PK" style="shape=partialRectangle;connectable=0;fillColor=none;top=0;left=0;bottom=0;right=0;fontStyle=1;overflow=hidden;whiteSpace=wrap;html=1;" vertex="1" parent="XpB990MYHuoKL3UtSnTx-2">
          <mxGeometry width="30" height="30" as="geometry">
            <mxRectangle width="30" height="30" as="alternateBounds" />
          </mxGeometry>
        </mxCell>
        <mxCell id="XpB990MYHuoKL3UtSnTx-4" value="id UNIQUE BIGINT&amp;nbsp;AUTO_INCREMENT NOTNULL" style="shape=partialRectangle;connectable=0;fillColor=none;top=0;left=0;bottom=0;right=0;align=left;spacingLeft=6;fontStyle=5;overflow=hidden;whiteSpace=wrap;html=1;" vertex="1" parent="XpB990MYHuoKL3UtSnTx-2">
          <mxGeometry x="30" width="780" height="30" as="geometry">
            <mxRectangle width="780" height="30" as="alternateBounds" />
          </mxGeometry>
        </mxCell>
        <mxCell id="XpB990MYHuoKL3UtSnTx-5" value="" style="shape=tableRow;horizontal=0;startSize=0;swimlaneHead=0;swimlaneBody=0;fillColor=none;collapsible=0;dropTarget=0;points=[[0,0.5],[1,0.5]];portConstraint=eastwest;top=0;left=0;right=0;bottom=0;" vertex="1" parent="XpB990MYHuoKL3UtSnTx-1">
          <mxGeometry y="60" width="810" height="30" as="geometry" />
        </mxCell>
        <mxCell id="XpB990MYHuoKL3UtSnTx-6" value="" style="shape=partialRectangle;connectable=0;fillColor=none;top=0;left=0;bottom=0;right=0;editable=1;overflow=hidden;whiteSpace=wrap;html=1;" vertex="1" parent="XpB990MYHuoKL3UtSnTx-5">
          <mxGeometry width="30" height="30" as="geometry">
            <mxRectangle width="30" height="30" as="alternateBounds" />
          </mxGeometry>
        </mxCell>
        <mxCell id="XpB990MYHuoKL3UtSnTx-7" value="brand NOTNULL VARCHAR(20)" style="shape=partialRectangle;connectable=0;fillColor=none;top=0;left=0;bottom=0;right=0;align=left;spacingLeft=6;overflow=hidden;whiteSpace=wrap;html=1;" vertex="1" parent="XpB990MYHuoKL3UtSnTx-5">
          <mxGeometry x="30" width="780" height="30" as="geometry">
            <mxRectangle width="780" height="30" as="alternateBounds" />
          </mxGeometry>
        </mxCell>
        <mxCell id="XpB990MYHuoKL3UtSnTx-8" value="" style="shape=tableRow;horizontal=0;startSize=0;swimlaneHead=0;swimlaneBody=0;fillColor=none;collapsible=0;dropTarget=0;points=[[0,0.5],[1,0.5]];portConstraint=eastwest;top=0;left=0;right=0;bottom=0;" vertex="1" parent="XpB990MYHuoKL3UtSnTx-1">
          <mxGeometry y="90" width="810" height="30" as="geometry" />
        </mxCell>
        <mxCell id="XpB990MYHuoKL3UtSnTx-9" value="" style="shape=partialRectangle;connectable=0;fillColor=none;top=0;left=0;bottom=0;right=0;editable=1;overflow=hidden;whiteSpace=wrap;html=1;" vertex="1" parent="XpB990MYHuoKL3UtSnTx-8">
          <mxGeometry width="30" height="30" as="geometry">
            <mxRectangle width="30" height="30" as="alternateBounds" />
          </mxGeometry>
        </mxCell>
        <mxCell id="XpB990MYHuoKL3UtSnTx-10" value="model NOTNULL VARCHAR(15)" style="shape=partialRectangle;connectable=0;fillColor=none;top=0;left=0;bottom=0;right=0;align=left;spacingLeft=6;overflow=hidden;whiteSpace=wrap;html=1;" vertex="1" parent="XpB990MYHuoKL3UtSnTx-8">
          <mxGeometry x="30" width="780" height="30" as="geometry">
            <mxRectangle width="780" height="30" as="alternateBounds" />
          </mxGeometry>
        </mxCell>
        <mxCell id="XpB990MYHuoKL3UtSnTx-11" value="" style="shape=tableRow;horizontal=0;startSize=0;swimlaneHead=0;swimlaneBody=0;fillColor=none;collapsible=0;dropTarget=0;points=[[0,0.5],[1,0.5]];portConstraint=eastwest;top=0;left=0;right=0;bottom=0;" vertex="1" parent="XpB990MYHuoKL3UtSnTx-1">
          <mxGeometry y="120" width="810" height="30" as="geometry" />
        </mxCell>
        <mxCell id="XpB990MYHuoKL3UtSnTx-12" value="" style="shape=partialRectangle;connectable=0;fillColor=none;top=0;left=0;bottom=0;right=0;editable=1;overflow=hidden;whiteSpace=wrap;html=1;" vertex="1" parent="XpB990MYHuoKL3UtSnTx-11">
          <mxGeometry width="30" height="30" as="geometry">
            <mxRectangle width="30" height="30" as="alternateBounds" />
          </mxGeometry>
        </mxCell>
        <mxCell id="XpB990MYHuoKL3UtSnTx-13" value="model_version NOTNULL DEFAULT(&#39;unico modello&#39;) VARCHAR(15)" style="shape=partialRectangle;connectable=0;fillColor=none;top=0;left=0;bottom=0;right=0;align=left;spacingLeft=6;overflow=hidden;whiteSpace=wrap;html=1;" vertex="1" parent="XpB990MYHuoKL3UtSnTx-11">
          <mxGeometry x="30" width="780" height="30" as="geometry">
            <mxRectangle width="780" height="30" as="alternateBounds" />
          </mxGeometry>
        </mxCell>
        <mxCell id="XpB990MYHuoKL3UtSnTx-41" value="" style="shape=tableRow;horizontal=0;startSize=0;swimlaneHead=0;swimlaneBody=0;fillColor=none;collapsible=0;dropTarget=0;points=[[0,0.5],[1,0.5]];portConstraint=eastwest;top=0;left=0;right=0;bottom=0;" vertex="1" parent="XpB990MYHuoKL3UtSnTx-1">
          <mxGeometry y="150" width="810" height="30" as="geometry" />
        </mxCell>
        <mxCell id="XpB990MYHuoKL3UtSnTx-42" value="" style="shape=partialRectangle;connectable=0;fillColor=none;top=0;left=0;bottom=0;right=0;editable=1;overflow=hidden;whiteSpace=wrap;html=1;" vertex="1" parent="XpB990MYHuoKL3UtSnTx-41">
          <mxGeometry width="30" height="30" as="geometry">
            <mxRectangle width="30" height="30" as="alternateBounds" />
          </mxGeometry>
        </mxCell>
        <mxCell id="XpB990MYHuoKL3UtSnTx-43" value="model_year NULL TINYINT" style="shape=partialRectangle;connectable=0;fillColor=none;top=0;left=0;bottom=0;right=0;align=left;spacingLeft=6;overflow=hidden;whiteSpace=wrap;html=1;" vertex="1" parent="XpB990MYHuoKL3UtSnTx-41">
          <mxGeometry x="30" width="780" height="30" as="geometry">
            <mxRectangle width="780" height="30" as="alternateBounds" />
          </mxGeometry>
        </mxCell>
        <mxCell id="XpB990MYHuoKL3UtSnTx-14" value="" style="shape=tableRow;horizontal=0;startSize=0;swimlaneHead=0;swimlaneBody=0;fillColor=none;collapsible=0;dropTarget=0;points=[[0,0.5],[1,0.5]];portConstraint=eastwest;top=0;left=0;right=0;bottom=0;" vertex="1" parent="XpB990MYHuoKL3UtSnTx-1">
          <mxGeometry y="180" width="810" height="30" as="geometry" />
        </mxCell>
        <mxCell id="XpB990MYHuoKL3UtSnTx-15" value="" style="shape=partialRectangle;connectable=0;fillColor=none;top=0;left=0;bottom=0;right=0;editable=1;overflow=hidden;whiteSpace=wrap;html=1;" vertex="1" parent="XpB990MYHuoKL3UtSnTx-14">
          <mxGeometry width="30" height="30" as="geometry">
            <mxRectangle width="30" height="30" as="alternateBounds" />
          </mxGeometry>
        </mxCell>
        <mxCell id="XpB990MYHuoKL3UtSnTx-16" value="plate UNIQUE NOTNULL&amp;nbsp; CHAR(7) (se si vendono solo auto con targhe italiane altrimenti ) VARCHAR(12)" style="shape=partialRectangle;connectable=0;fillColor=none;top=0;left=0;bottom=0;right=0;align=left;spacingLeft=6;overflow=hidden;whiteSpace=wrap;html=1;" vertex="1" parent="XpB990MYHuoKL3UtSnTx-14">
          <mxGeometry x="30" width="780" height="30" as="geometry">
            <mxRectangle width="780" height="30" as="alternateBounds" />
          </mxGeometry>
        </mxCell>
        <mxCell id="XpB990MYHuoKL3UtSnTx-17" value="" style="shape=tableRow;horizontal=0;startSize=0;swimlaneHead=0;swimlaneBody=0;fillColor=none;collapsible=0;dropTarget=0;points=[[0,0.5],[1,0.5]];portConstraint=eastwest;top=0;left=0;right=0;bottom=0;" vertex="1" parent="XpB990MYHuoKL3UtSnTx-1">
          <mxGeometry y="210" width="810" height="30" as="geometry" />
        </mxCell>
        <mxCell id="XpB990MYHuoKL3UtSnTx-18" value="" style="shape=partialRectangle;connectable=0;fillColor=none;top=0;left=0;bottom=0;right=0;editable=1;overflow=hidden;whiteSpace=wrap;html=1;" vertex="1" parent="XpB990MYHuoKL3UtSnTx-17">
          <mxGeometry width="30" height="30" as="geometry">
            <mxRectangle width="30" height="30" as="alternateBounds" />
          </mxGeometry>
        </mxCell>
        <mxCell id="XpB990MYHuoKL3UtSnTx-19" value="km NOTNULL MEDIUMINT" style="shape=partialRectangle;connectable=0;fillColor=none;top=0;left=0;bottom=0;right=0;align=left;spacingLeft=6;overflow=hidden;whiteSpace=wrap;html=1;" vertex="1" parent="XpB990MYHuoKL3UtSnTx-17">
          <mxGeometry x="30" width="780" height="30" as="geometry">
            <mxRectangle width="780" height="30" as="alternateBounds" />
          </mxGeometry>
        </mxCell>
        <mxCell id="XpB990MYHuoKL3UtSnTx-20" value="" style="shape=tableRow;horizontal=0;startSize=0;swimlaneHead=0;swimlaneBody=0;fillColor=none;collapsible=0;dropTarget=0;points=[[0,0.5],[1,0.5]];portConstraint=eastwest;top=0;left=0;right=0;bottom=0;" vertex="1" parent="XpB990MYHuoKL3UtSnTx-1">
          <mxGeometry y="240" width="810" height="20" as="geometry" />
        </mxCell>
        <mxCell id="XpB990MYHuoKL3UtSnTx-21" value="" style="shape=partialRectangle;connectable=0;fillColor=none;top=0;left=0;bottom=0;right=0;editable=1;overflow=hidden;whiteSpace=wrap;html=1;" vertex="1" parent="XpB990MYHuoKL3UtSnTx-20">
          <mxGeometry width="30" height="20" as="geometry">
            <mxRectangle width="30" height="20" as="alternateBounds" />
          </mxGeometry>
        </mxCell>
        <mxCell id="XpB990MYHuoKL3UtSnTx-22" value="condition NULL TEXT" style="shape=partialRectangle;connectable=0;fillColor=none;top=0;left=0;bottom=0;right=0;align=left;spacingLeft=6;overflow=hidden;whiteSpace=wrap;html=1;" vertex="1" parent="XpB990MYHuoKL3UtSnTx-20">
          <mxGeometry x="30" width="780" height="20" as="geometry">
            <mxRectangle width="780" height="20" as="alternateBounds" />
          </mxGeometry>
        </mxCell>
        <mxCell id="XpB990MYHuoKL3UtSnTx-23" value="" style="shape=tableRow;horizontal=0;startSize=0;swimlaneHead=0;swimlaneBody=0;fillColor=none;collapsible=0;dropTarget=0;points=[[0,0.5],[1,0.5]];portConstraint=eastwest;top=0;left=0;right=0;bottom=0;" vertex="1" parent="XpB990MYHuoKL3UtSnTx-1">
          <mxGeometry y="260" width="810" height="30" as="geometry" />
        </mxCell>
        <mxCell id="XpB990MYHuoKL3UtSnTx-24" value="" style="shape=partialRectangle;connectable=0;fillColor=none;top=0;left=0;bottom=0;right=0;editable=1;overflow=hidden;whiteSpace=wrap;html=1;" vertex="1" parent="XpB990MYHuoKL3UtSnTx-23">
          <mxGeometry width="30" height="30" as="geometry">
            <mxRectangle width="30" height="30" as="alternateBounds" />
          </mxGeometry>
        </mxCell>
        <mxCell id="XpB990MYHuoKL3UtSnTx-25" value="car_chassis_number CHAR(17) NOTNULL UNIQUE" style="shape=partialRectangle;connectable=0;fillColor=none;top=0;left=0;bottom=0;right=0;align=left;spacingLeft=6;overflow=hidden;whiteSpace=wrap;html=1;" vertex="1" parent="XpB990MYHuoKL3UtSnTx-23">
          <mxGeometry x="30" width="780" height="30" as="geometry">
            <mxRectangle width="780" height="30" as="alternateBounds" />
          </mxGeometry>
        </mxCell>
        <mxCell id="XpB990MYHuoKL3UtSnTx-26" value="" style="shape=tableRow;horizontal=0;startSize=0;swimlaneHead=0;swimlaneBody=0;fillColor=none;collapsible=0;dropTarget=0;points=[[0,0.5],[1,0.5]];portConstraint=eastwest;top=0;left=0;right=0;bottom=0;" vertex="1" parent="XpB990MYHuoKL3UtSnTx-1">
          <mxGeometry y="290" width="810" height="30" as="geometry" />
        </mxCell>
        <mxCell id="XpB990MYHuoKL3UtSnTx-27" value="" style="shape=partialRectangle;connectable=0;fillColor=none;top=0;left=0;bottom=0;right=0;editable=1;overflow=hidden;whiteSpace=wrap;html=1;" vertex="1" parent="XpB990MYHuoKL3UtSnTx-26">
          <mxGeometry width="30" height="30" as="geometry">
            <mxRectangle width="30" height="30" as="alternateBounds" />
          </mxGeometry>
        </mxCell>
        <mxCell id="XpB990MYHuoKL3UtSnTx-28" value="discount NULL TINYINT" style="shape=partialRectangle;connectable=0;fillColor=none;top=0;left=0;bottom=0;right=0;align=left;spacingLeft=6;overflow=hidden;whiteSpace=wrap;html=1;" vertex="1" parent="XpB990MYHuoKL3UtSnTx-26">
          <mxGeometry x="30" width="780" height="30" as="geometry">
            <mxRectangle width="780" height="30" as="alternateBounds" />
          </mxGeometry>
        </mxCell>
        <mxCell id="XpB990MYHuoKL3UtSnTx-29" value="" style="shape=tableRow;horizontal=0;startSize=0;swimlaneHead=0;swimlaneBody=0;fillColor=none;collapsible=0;dropTarget=0;points=[[0,0.5],[1,0.5]];portConstraint=eastwest;top=0;left=0;right=0;bottom=0;" vertex="1" parent="XpB990MYHuoKL3UtSnTx-1">
          <mxGeometry y="320" width="810" height="30" as="geometry" />
        </mxCell>
        <mxCell id="XpB990MYHuoKL3UtSnTx-30" value="" style="shape=partialRectangle;connectable=0;fillColor=none;top=0;left=0;bottom=0;right=0;editable=1;overflow=hidden;whiteSpace=wrap;html=1;" vertex="1" parent="XpB990MYHuoKL3UtSnTx-29">
          <mxGeometry width="30" height="30" as="geometry">
            <mxRectangle width="30" height="30" as="alternateBounds" />
          </mxGeometry>
        </mxCell>
        <mxCell id="XpB990MYHuoKL3UtSnTx-31" value="price NOTNULL FLOAT(8,2)" style="shape=partialRectangle;connectable=0;fillColor=none;top=0;left=0;bottom=0;right=0;align=left;spacingLeft=6;overflow=hidden;whiteSpace=wrap;html=1;" vertex="1" parent="XpB990MYHuoKL3UtSnTx-29">
          <mxGeometry x="30" width="780" height="30" as="geometry">
            <mxRectangle width="780" height="30" as="alternateBounds" />
          </mxGeometry>
        </mxCell>
        <mxCell id="XpB990MYHuoKL3UtSnTx-32" value="" style="shape=tableRow;horizontal=0;startSize=0;swimlaneHead=0;swimlaneBody=0;fillColor=none;collapsible=0;dropTarget=0;points=[[0,0.5],[1,0.5]];portConstraint=eastwest;top=0;left=0;right=0;bottom=0;" vertex="1" parent="XpB990MYHuoKL3UtSnTx-1">
          <mxGeometry y="350" width="810" height="30" as="geometry" />
        </mxCell>
        <mxCell id="XpB990MYHuoKL3UtSnTx-33" value="" style="shape=partialRectangle;connectable=0;fillColor=none;top=0;left=0;bottom=0;right=0;editable=1;overflow=hidden;whiteSpace=wrap;html=1;" vertex="1" parent="XpB990MYHuoKL3UtSnTx-32">
          <mxGeometry width="30" height="30" as="geometry">
            <mxRectangle width="30" height="30" as="alternateBounds" />
          </mxGeometry>
        </mxCell>
        <mxCell id="XpB990MYHuoKL3UtSnTx-34" value="is_streat_legal NOTNULL TINYINT" style="shape=partialRectangle;connectable=0;fillColor=none;top=0;left=0;bottom=0;right=0;align=left;spacingLeft=6;overflow=hidden;whiteSpace=wrap;html=1;" vertex="1" parent="XpB990MYHuoKL3UtSnTx-32">
          <mxGeometry x="30" width="780" height="30" as="geometry">
            <mxRectangle width="780" height="30" as="alternateBounds" />
          </mxGeometry>
        </mxCell>
        <mxCell id="XpB990MYHuoKL3UtSnTx-35" value="" style="shape=tableRow;horizontal=0;startSize=0;swimlaneHead=0;swimlaneBody=0;fillColor=none;collapsible=0;dropTarget=0;points=[[0,0.5],[1,0.5]];portConstraint=eastwest;top=0;left=0;right=0;bottom=0;" vertex="1" parent="XpB990MYHuoKL3UtSnTx-1">
          <mxGeometry y="380" width="810" height="30" as="geometry" />
        </mxCell>
        <mxCell id="XpB990MYHuoKL3UtSnTx-36" value="" style="shape=partialRectangle;connectable=0;fillColor=none;top=0;left=0;bottom=0;right=0;editable=1;overflow=hidden;whiteSpace=wrap;html=1;" vertex="1" parent="XpB990MYHuoKL3UtSnTx-35">
          <mxGeometry width="30" height="30" as="geometry">
            <mxRectangle width="30" height="30" as="alternateBounds" />
          </mxGeometry>
        </mxCell>
        <mxCell id="XpB990MYHuoKL3UtSnTx-37" value="optionals NULL TEXT" style="shape=partialRectangle;connectable=0;fillColor=none;top=0;left=0;bottom=0;right=0;align=left;spacingLeft=6;overflow=hidden;whiteSpace=wrap;html=1;" vertex="1" parent="XpB990MYHuoKL3UtSnTx-35">
          <mxGeometry x="30" width="780" height="30" as="geometry">
            <mxRectangle width="780" height="30" as="alternateBounds" />
          </mxGeometry>
        </mxCell>
        <mxCell id="XpB990MYHuoKL3UtSnTx-38" value="" style="shape=tableRow;horizontal=0;startSize=0;swimlaneHead=0;swimlaneBody=0;fillColor=none;collapsible=0;dropTarget=0;points=[[0,0.5],[1,0.5]];portConstraint=eastwest;top=0;left=0;right=0;bottom=0;" vertex="1" parent="XpB990MYHuoKL3UtSnTx-1">
          <mxGeometry y="410" width="810" height="30" as="geometry" />
        </mxCell>
        <mxCell id="XpB990MYHuoKL3UtSnTx-39" value="" style="shape=partialRectangle;connectable=0;fillColor=none;top=0;left=0;bottom=0;right=0;editable=1;overflow=hidden;whiteSpace=wrap;html=1;" vertex="1" parent="XpB990MYHuoKL3UtSnTx-38">
          <mxGeometry width="30" height="30" as="geometry">
            <mxRectangle width="30" height="30" as="alternateBounds" />
          </mxGeometry>
        </mxCell>
        <mxCell id="XpB990MYHuoKL3UtSnTx-40" value="driving_license_required NULL VARCHAR(2)" style="shape=partialRectangle;connectable=0;fillColor=none;top=0;left=0;bottom=0;right=0;align=left;spacingLeft=6;overflow=hidden;whiteSpace=wrap;html=1;" vertex="1" parent="XpB990MYHuoKL3UtSnTx-38">
          <mxGeometry x="30" width="780" height="30" as="geometry">
            <mxRectangle width="780" height="30" as="alternateBounds" />
          </mxGeometry>
        </mxCell>
      </root>
    </mxGraphModel>
  </diagram>
</mxfile>
